%TF.GenerationSoftware,KiCad,Pcbnew,7.0.2-0*%
%TF.CreationDate,2024-01-30T21:56:13+01:00*%
%TF.ProjectId,wlan-thermo-front-panel,776c616e-2d74-4686-9572-6d6f2d66726f,rev?*%
%TF.SameCoordinates,Original*%
%TF.FileFunction,Paste,Top*%
%TF.FilePolarity,Positive*%
%FSLAX46Y46*%
G04 Gerber Fmt 4.6, Leading zero omitted, Abs format (unit mm)*
G04 Created by KiCad (PCBNEW 7.0.2-0) date 2024-01-30 21:56:13*
%MOMM*%
%LPD*%
G01*
G04 APERTURE LIST*
G04 Aperture macros list*
%AMRoundRect*
0 Rectangle with rounded corners*
0 $1 Rounding radius*
0 $2 $3 $4 $5 $6 $7 $8 $9 X,Y pos of 4 corners*
0 Add a 4 corners polygon primitive as box body*
4,1,4,$2,$3,$4,$5,$6,$7,$8,$9,$2,$3,0*
0 Add four circle primitives for the rounded corners*
1,1,$1+$1,$2,$3*
1,1,$1+$1,$4,$5*
1,1,$1+$1,$6,$7*
1,1,$1+$1,$8,$9*
0 Add four rect primitives between the rounded corners*
20,1,$1+$1,$2,$3,$4,$5,0*
20,1,$1+$1,$4,$5,$6,$7,0*
20,1,$1+$1,$6,$7,$8,$9,0*
20,1,$1+$1,$8,$9,$2,$3,0*%
G04 Aperture macros list end*
%ADD10R,2.500000X1.000000*%
%ADD11R,1.000000X1.800000*%
%ADD12RoundRect,0.237500X0.237500X-0.250000X0.237500X0.250000X-0.237500X0.250000X-0.237500X-0.250000X0*%
%ADD13RoundRect,0.237500X-0.300000X-0.237500X0.300000X-0.237500X0.300000X0.237500X-0.300000X0.237500X0*%
%ADD14RoundRect,0.237500X-0.237500X0.250000X-0.237500X-0.250000X0.237500X-0.250000X0.237500X0.250000X0*%
%ADD15RoundRect,0.237500X-0.237500X0.300000X-0.237500X-0.300000X0.237500X-0.300000X0.237500X0.300000X0*%
%ADD16RoundRect,0.237500X-0.250000X-0.237500X0.250000X-0.237500X0.250000X0.237500X-0.250000X0.237500X0*%
%ADD17R,0.300000X0.500000*%
%ADD18R,0.650000X0.900000*%
%ADD19R,0.500000X0.900000*%
%ADD20R,0.650000X0.400000*%
%ADD21R,0.600000X1.400000*%
%ADD22RoundRect,0.250000X0.325000X0.450000X-0.325000X0.450000X-0.325000X-0.450000X0.325000X-0.450000X0*%
G04 APERTURE END LIST*
D10*
%TO.C,U1*%
X111100000Y-47300000D03*
X111100000Y-49300000D03*
X111100000Y-51300000D03*
X111100000Y-53300000D03*
X111100000Y-55300000D03*
X111100000Y-57300000D03*
X111100000Y-59300000D03*
X111100000Y-61300000D03*
D11*
X113700000Y-62800000D03*
X115700000Y-62800000D03*
X117700000Y-62800000D03*
X119700000Y-62800000D03*
X121700000Y-62800000D03*
X123700000Y-62800000D03*
D10*
X126300000Y-61300000D03*
X126300000Y-59300000D03*
X126300000Y-57300000D03*
X126300000Y-55300000D03*
X126300000Y-53300000D03*
X126300000Y-51300000D03*
X126300000Y-49300000D03*
X126300000Y-47300000D03*
%TD*%
D12*
%TO.C,R6*%
X140516601Y-48535600D03*
X140516601Y-46710600D03*
%TD*%
D13*
%TO.C,C1*%
X100962300Y-75720400D03*
X102687300Y-75720400D03*
%TD*%
%TO.C,C2*%
X100987700Y-69141800D03*
X102712700Y-69141800D03*
%TD*%
D14*
%TO.C,R4*%
X138785601Y-46710600D03*
X138785601Y-48535600D03*
%TD*%
D15*
%TO.C,C3*%
X108850000Y-61305000D03*
X108850000Y-63030000D03*
%TD*%
D16*
%TO.C,R7*%
X106767500Y-50340000D03*
X108592500Y-50340000D03*
%TD*%
D17*
%TO.C,U2*%
X157450000Y-47100000D03*
X156650000Y-47100000D03*
X156650000Y-48500000D03*
X157450000Y-48500000D03*
%TD*%
D12*
%TO.C,R8*%
X108650000Y-53812500D03*
X108650000Y-51987500D03*
%TD*%
D14*
%TO.C,R12*%
X128990000Y-59397500D03*
X128990000Y-61222500D03*
%TD*%
D18*
%TO.C,RN1*%
X121391600Y-65393200D03*
D19*
X120516600Y-65393200D03*
X119716600Y-65393200D03*
D18*
X118841600Y-65393200D03*
X118841600Y-67093200D03*
D19*
X119716600Y-67093200D03*
X120516600Y-67093200D03*
D18*
X121391600Y-67093200D03*
%TD*%
D14*
%TO.C,R3*%
X144873801Y-46710600D03*
X144873801Y-48535600D03*
%TD*%
D20*
%TO.C,Q1*%
X124890000Y-65550000D03*
X124890000Y-66200000D03*
X124890000Y-66850000D03*
X126790000Y-66850000D03*
X126790000Y-66200000D03*
X126790000Y-65550000D03*
%TD*%
D21*
%TO.C,IC1*%
X100890000Y-73750000D03*
X101840000Y-73750000D03*
X102790000Y-73750000D03*
X102790000Y-71250000D03*
X100890000Y-71250000D03*
%TD*%
D22*
%TO.C,F1*%
X138307201Y-75160000D03*
X136257201Y-75160000D03*
%TD*%
D12*
%TO.C,R5*%
X146685001Y-48535600D03*
X146685001Y-46710600D03*
%TD*%
M02*
